<svg xmlns="http://www.w3.org/2000/svg" viewBox="0 0 130 130" width="256" height="256"><circle cx="65" cy="65" r="64" fill="#f34b50" class="colorF34B50 svgShape"></circle><path fill="#e53946" d="M100.295 110.294a1.005 1.005 0 1 0 0 2.01h7.81a64.393 64.393 0 0 0 2.11-2.01h-9.92zm-9.097 1.005c0-.555.45-1.005 1.006-1.005h4.123c.553 0 1.005.453 1.005 1.005 0 .553-.452 1.006-1.005 1.006h-4.124c-.555 0-1.005-.45-1.005-1.006zm1.26-85.833c0 .555.45 1.005 1.005 1.005h16.008c.553 0 1.005-.452 1.005-1.005 0-.553-.452-1.005-1.005-1.005H93.463c-.555 0-1.005.45-1.005 1.005zm-1.561 0c0-.555-.45-1.005-1.005-1.005h-4.808a1.005 1.005 0 1 0 0 2.01h4.808c.555 0 1.005-.45 1.005-1.005zM66.81 43.646c0 .555.45 1.005 1.005 1.005h16.008c.553 0 1.005-.452 1.005-1.005s-.452-1.006-1.005-1.006H67.815c-.555 0-1.005.45-1.005 1.006zm-1.561 0c0-.555-.45-1.006-1.005-1.006h-4.808a1.005 1.005 0 1 0 0 2.01h4.808c.555 0 1.005-.45 1.005-1.004zM1.153 60.653c.04-.68.1-1.35.16-2.01h9.88a1.005 1.005 0 1 1 0 2.01H1.153zm35.439-29.877h-15.25a1.005 1.005 0 1 1 0-2.01h15.25c.552 0 1.005.452 1.005 1.005 0 .553-.453 1.005-1.005 1.005zM25.295 73.827h12.75a1.005 1.005 0 0 0 0-2.01h-12.75c-.553 0-1.005.452-1.005 1.005 0 .553.452 1.005 1.005 1.005zm16.368-1.005c0 .555.45 1.005 1.005 1.005h1.08a1.005 1.005 0 0 0 0-2.01h-1.08c-.555 0-1.005.45-1.005 1.005zm-2.768 32.652h-12.75a1.005 1.005 0 0 1 0-2.01h12.75c.553 0 1.005.452 1.005 1.005 0 .553-.452 1.005-1.005 1.005zm-16.368-1.005c0 .555-.45 1.005-1.005 1.005h-1.08a1.005 1.005 0 0 1 0-2.01h1.08c.555 0 1.005.45 1.005 1.005zm102.16-41.834h-12.75a1.005 1.005 0 0 1 0-2.01h12.75c.553 0 1.005.452 1.006 1.005 0 .553-.453 1.005-1.006 1.005zM108.32 61.63c0 .555-.45 1.005-1.006 1.005h-1.08a1.005 1.005 0 0 1 0-2.01h1.08c.555 0 1.006.45 1.006 1.005zM77.053 8.92h-12.75a1.005 1.005 0 1 1 0-2.01h12.75c.552 0 1.005.453 1.005 1.006s-.452 1.005-1.005 1.005zM60.685 7.917c0 .555-.45 1.005-1.005 1.005H58.6a1.005 1.005 0 0 1 0-2.01h1.08c.555 0 1.005.45 1.005 1.005zM94.113 95.135v1.597a5.772 5.772 0 0 1-5.771 5.771H47.31a5.772 5.772 0 0 1-5.772-5.771v-1.597c0-11.431 9.267-20.698 20.699-20.698h11.177c11.431 0 20.698 9.267 20.698 20.698z" class="colorE53946 svgShape"></path><path fill="#e53946" d="M73.84 60.345v12.661a6.012 6.012 0 0 1-6.015 6.015 6.006 6.006 0 0 1-6.014-6.015V60.345H73.84z" class="colorE53946 svgShape"></path><path fill="#e53946" d="M73.84 71.097s.726 4.419-6.538 7.924c0 0 6.777 2.257 8.58 4.884 0 0 3.664-10.406-2.042-12.808z" class="colorE53946 svgShape"></path><path fill="#e53946" d="M61.81 71.097s-.726 4.419 6.538 7.924c0 0-6.777 2.257-8.58 4.884 0 0-3.664-10.406 2.043-12.808z" class="colorE53946 svgShape"></path><path fill="#e53946" d="M66.301 78.727h3.051V102.5h-3.051zM81.3 44.774v9.875a4.174 4.174 0 0 1-4.175 4.174H58.523a4.174 4.174 0 0 1-4.174-4.174V46.27a4.18 4.18 0 0 1 4.164-4.174v-.666a4.174 4.174 0 0 1 4.174-4.174h11.095a7.518 7.518 0 0 1 7.518 7.518z" class="colorE53946 svgShape"></path><circle cx="79.399" cy="58.322" r="3.033" fill="#e53946" class="colorE53946 svgShape"></circle><circle cx="56.253" cy="58.322" r="3.033" fill="#e53946" class="colorE53946 svgShape"></circle><path fill="#e53946" d="M79.553 50.482V61.75c0 3.24-1.313 6.172-3.434 8.293a11.704 11.704 0 0 1-8.293 3.434c-6.479 0-11.728-5.248-11.728-11.727v-9.88c1.615.595 3.674.611 5.722-.084 1.631-.551 2.995-1.47 3.952-2.55 1.13.974 2.544 1.793 4.158 2.338 3.707 1.253 7.425.735 9.623-1.09z" class="colorE53946 svgShape"></path><path fill="#e53946" d="M68.04 68.528a5.117 5.117 0 0 1-2.332-.54.27.27 0 1 1 .246-.479c1.564.806 4.145.612 5.256-.858a.27.27 0 0 1 .429.325c-.754.999-2.164 1.552-3.6 1.552zm6.278-9.037a1.147 1.147 0 1 1-2.294.002 1.147 1.147 0 0 1 2.294-.002zm1.747-2.406a.37.37 0 0 1-.368.367h-5.054a.367.367 0 1 1 0-.735h5.054c.2 0 .368.167.368.368zM63.63 59.491a1.147 1.147 0 1 1-2.295.002 1.147 1.147 0 0 1 2.294-.002zm1.746-2.406a.37.37 0 0 1-.368.367h-5.053a.367.367 0 1 1 0-.735h5.053c.2 0 .368.167.368.368zM65.846 62.612c.334 1.848 3.624 1.848 3.958 0a6.264 6.264 0 0 1-3.958 0z" class="colorE53946 svgShape"></path><path fill="#168de2" d="M91.663 95.135v1.597a5.772 5.772 0 0 1-5.771 5.771H44.86a5.772 5.772 0 0 1-5.772-5.771v-1.597c0-11.431 9.267-20.698 20.699-20.698h11.177c11.432 0 20.698 9.267 20.698 20.698z" class="color168DE2 svgShape"></path><path fill="#f4bd98" d="M71.39 60.345v12.661a6.012 6.012 0 0 1-6.015 6.015 6.006 6.006 0 0 1-6.014-6.015V60.345H71.39z" class="colorF4BD98 svgShape"></path><path fill="#2e6bce" d="M71.39 71.097s.726 4.419-6.538 7.924c0 0 6.777 2.257 8.58 4.884 0 0 3.664-10.406-2.042-12.808z" class="color2E6BCE svgShape"></path><path fill="#2e6bce" d="M59.36 71.097s-.726 4.419 6.538 7.924c0 0-6.777 2.257-8.58 4.884 0 0-3.664-10.406 2.043-12.808z" class="color2E6BCE svgShape"></path><path fill="#2e6bce" d="M63.851 78.727h3.051V102.5h-3.051z" class="color2E6BCE svgShape"></path><path fill="#386384" d="M78.85 44.774v9.875a4.174 4.174 0 0 1-4.175 4.174H56.073a4.174 4.174 0 0 1-4.174-4.174V46.27a4.18 4.18 0 0 1 4.164-4.174v-.666a4.174 4.174 0 0 1 4.175-4.174h11.094a7.518 7.518 0 0 1 7.518 7.518z" class="color386384 svgShape"></path><circle cx="76.949" cy="58.322" r="3.033" fill="#f4bd98" class="colorF4BD98 svgShape"></circle><circle cx="53.803" cy="58.322" r="3.033" fill="#f4bd98" class="colorF4BD98 svgShape"></circle><path fill="#ffceab" d="M77.104 50.482V61.75c0 3.24-1.314 6.172-3.435 8.293a11.704 11.704 0 0 1-8.293 3.434c-6.479 0-11.727-5.248-11.727-11.727v-9.88c1.614.595 3.673.611 5.721-.084 1.631-.551 2.995-1.47 3.952-2.55 1.13.974 2.544 1.793 4.158 2.338 3.707 1.253 7.425.735 9.624-1.09z" class="colorFFCEAB svgShape"></path><path fill="#ffbf9c" d="M65.59 68.528a5.117 5.117 0 0 1-2.332-.54.27.27 0 1 1 .246-.479c1.564.806 4.145.612 5.257-.858a.27.27 0 0 1 .376-.052.27.27 0 0 1 .052.377c-.754.999-2.164 1.552-3.6 1.552z" class="colorFFBF9C svgShape"></path><path fill="#2f4867" d="M71.869 59.491a1.147 1.147 0 1 1-2.295.002 1.147 1.147 0 0 1 2.295-.002zm1.746-2.406a.37.37 0 0 1-.368.367h-5.053a.367.367 0 1 1 0-.735h5.053c.2 0 .368.167.368.368zM61.18 59.491a1.147 1.147 0 1 1-2.295.002 1.147 1.147 0 0 1 2.295-.002zm1.746-2.406a.37.37 0 0 1-.368.367h-5.053a.367.367 0 1 1 0-.735h5.053c.2 0 .368.167.368.368z" class="color2F4867 svgShape"></path><path fill="#ffbf9c" d="M63.396 62.612c.334 1.848 3.624 1.848 3.958 0a6.264 6.264 0 0 1-3.958 0z" class="colorFFBF9C svgShape"></path><path fill="#e53946" d="M115.839 59.343h-3.356c-1.43 0-2.672-.995-3.014-2.393a31.26 31.26 0 0 0-.776-2.92 3.118 3.118 0 0 1 1.429-3.573l2.92-1.677c1.46-.87 1.958-2.735 1.119-4.195l-4.412-7.643c-.839-1.46-2.734-1.958-4.194-1.119l-2.952 1.71c-1.243.714-2.796.466-3.79-.59-.684-.715-1.399-1.461-2.144-2.144a3.108 3.108 0 0 1-.56-3.79l1.71-2.921a3.066 3.066 0 0 0-1.15-4.195l-7.612-4.411c-1.46-.839-3.356-.342-4.195 1.118l-1.677 2.951a3.087 3.087 0 0 1-3.573 1.368 78.492 78.492 0 0 0-2.92-.777 3.058 3.058 0 0 1-2.393-2.983v-3.386a3.083 3.083 0 0 0-3.075-3.076H62.4c-1.677 0-3.075 1.398-3.075 3.076v3.386c0 1.43-.995 2.641-2.393 2.983-.994.217-1.957.497-2.92.777-1.368.435-2.828-.156-3.542-1.399l-1.71-2.92c-.838-1.46-2.702-1.957-4.193-1.118l-7.612 4.411a3.03 3.03 0 0 0-1.118 4.195l1.677 2.92a3.072 3.072 0 0 1-.59 3.79 45.887 45.887 0 0 0-2.113 2.144c-.994 1.057-2.548 1.305-3.79.56l-2.92-1.679a3.12 3.12 0 0 0-4.226 1.12l-4.38 7.642c-.87 1.46-.374 3.324 1.117 4.195l2.921 1.677c1.243.715 1.802 2.206 1.398 3.573a31.027 31.027 0 0 0-.776 2.92c-.342 1.398-1.554 2.393-2.984 2.393h-3.386a3.063 3.063 0 0 0-3.075 3.075v8.793a3.063 3.063 0 0 0 3.075 3.076h3.356c1.43 0 2.672.994 3.014 2.392.217.995.465 1.988.776 2.952.404 1.366-.155 2.827-1.398 3.542l-2.92 1.677a3.066 3.066 0 0 0-1.119 4.226l4.38 7.611c.87 1.46 2.734 1.988 4.226 1.12l2.92-1.679a3.03 3.03 0 0 1 3.76.59l2.143 2.144a3.028 3.028 0 0 1 .591 3.76l-1.677 2.92c-.87 1.46-.343 3.355 1.118 4.194l7.612 4.412c1.491.839 3.355.342 4.194-1.118l1.709-2.92c.714-1.243 2.174-1.803 3.541-1.399.964.31 1.927.56 2.921.777a3.066 3.066 0 0 1 2.393 3.014v3.355a3.082 3.082 0 0 0 3.075 3.075h8.824a3.063 3.063 0 0 0 3.075-3.075v-3.386c0-1.43.995-2.673 2.393-2.983.994-.218 1.957-.498 2.92-.777 1.367-.404 2.859.156 3.573 1.398l1.677 2.92c.84 1.46 2.735 1.958 4.195 1.12l7.612-4.413a3.065 3.065 0 0 0 1.15-4.194l-1.71-2.92c-.714-1.243-.465-2.797.59-3.791a34.632 34.632 0 0 0 2.144-2.144 3.109 3.109 0 0 1 3.791-.559l2.92 1.678c1.46.87 3.356.341 4.195-1.119l4.412-7.611a3.103 3.103 0 0 0-1.15-4.226l-2.89-1.677a3.049 3.049 0 0 1-1.397-3.573c.279-.933.528-1.926.776-2.92a3.058 3.058 0 0 1 2.983-2.393h3.356a3.063 3.063 0 0 0 3.075-3.076v-8.793a3.064 3.064 0 0 0-3.075-3.075zm-49.027 39.98c-17.968 0-32.492-14.559-32.492-32.493 0-17.933 14.524-32.491 32.492-32.491 17.934 0 32.492 14.558 32.492 32.49 0 17.935-14.558 32.493-32.492 32.493z" class="colorE53946 svgShape"></path><path fill="#ededed" d="M114.021 57.525h-3.355c-1.43 0-2.672-.994-3.014-2.392a31.257 31.257 0 0 0-.777-2.92 3.118 3.118 0 0 1 1.43-3.573l2.92-1.678c1.46-.87 1.957-2.734 1.118-4.195l-4.411-7.642c-.84-1.46-2.735-1.958-4.195-1.12l-2.951 1.71c-1.243.714-2.797.466-3.79-.59-.685-.715-1.4-1.46-2.145-2.144a3.108 3.108 0 0 1-.559-3.79l1.71-2.92a3.066 3.066 0 0 0-1.15-4.195l-7.612-4.412c-1.46-.838-3.356-.342-4.195 1.118l-1.677 2.952a3.087 3.087 0 0 1-3.573 1.367 78.506 78.506 0 0 0-2.92-.776 3.058 3.058 0 0 1-2.393-2.984v-3.386a3.083 3.083 0 0 0-3.076-3.075h-8.824c-1.677 0-3.075 1.398-3.075 3.075v3.387c0 1.43-.994 2.64-2.392 2.983-.994.217-1.958.497-2.921.776-1.367.435-2.827-.155-3.542-1.398l-1.709-2.92c-.838-1.46-2.702-1.957-4.193-1.119l-7.613 4.412a3.03 3.03 0 0 0-1.118 4.195l1.678 2.92a3.072 3.072 0 0 1-.591 3.79 45.887 45.887 0 0 0-2.112 2.144c-.995 1.056-2.548 1.304-3.79.559l-2.921-1.678a3.12 3.12 0 0 0-4.226 1.119l-4.38 7.642c-.87 1.46-.373 3.325 1.118 4.195l2.921 1.678c1.242.714 1.801 2.206 1.398 3.573a31.027 31.027 0 0 0-.777 2.92c-.342 1.398-1.553 2.392-2.983 2.392h-3.386a3.063 3.063 0 0 0-3.076 3.076v8.793a3.063 3.063 0 0 0 3.076 3.075h3.356c1.429 0 2.671.995 3.013 2.393.218.994.466 1.988.777 2.951.403 1.367-.156 2.828-1.398 3.542l-2.921 1.678a3.066 3.066 0 0 0-1.118 4.225l4.38 7.612c.87 1.46 2.734 1.988 4.226 1.119l2.92-1.678a3.03 3.03 0 0 1 3.76.59l2.143 2.144a3.028 3.028 0 0 1 .59 3.759l-1.677 2.92c-.87 1.461-.342 3.356 1.118 4.195l7.613 4.412c1.49.838 3.355.341 4.193-1.119l1.71-2.92c.714-1.243 2.174-1.802 3.54-1.398.964.31 1.928.559 2.922.777a3.066 3.066 0 0 1 2.392 3.013v3.356a3.082 3.082 0 0 0 3.075 3.075h8.824a3.063 3.063 0 0 0 3.076-3.075v-3.387c0-1.429.994-2.672 2.392-2.982.995-.218 1.957-.498 2.92-.777 1.367-.404 2.86.155 3.574 1.398l1.677 2.92c.839 1.46 2.734 1.957 4.195 1.119l7.611-4.412a3.065 3.065 0 0 0 1.15-4.194l-1.709-2.921c-.714-1.243-.466-2.796.59-3.79a34.629 34.629 0 0 0 2.144-2.144 3.11 3.11 0 0 1 3.791-.56l2.92 1.679c1.46.869 3.356.341 4.195-1.12l4.411-7.61a3.103 3.103 0 0 0-1.15-4.226l-2.889-1.678a3.049 3.049 0 0 1-1.398-3.573c.28-.932.528-1.926.777-2.92a3.058 3.058 0 0 1 2.983-2.393h3.355a3.063 3.063 0 0 0 3.076-3.075V60.6a3.064 3.064 0 0 0-3.076-3.076zm-49.026 39.98c-17.968 0-32.492-14.558-32.492-32.493 0-17.932 14.524-32.49 32.492-32.49 17.933 0 32.491 14.558 32.491 32.49 0 17.935-14.558 32.493-32.491 32.493z" class="colorEDEDED svgShape"></path><path fill="#dddce0" d="m93.117 23.396-1.702 2.933a3.072 3.072 0 0 0 .574 3.784 42.363 42.363 0 0 1 2.142 2.143c.124.132.277.212.417.318-.737-.97-.885-2.283-.257-3.368l1.703-2.933a3.072 3.072 0 0 0-1.129-4.204l-1.407-.813a3.057 3.057 0 0 1-.341 2.14zm16.335 16.48a3.079 3.079 0 0 1-1.117 4.204l-2.923 1.692a3.078 3.078 0 0 0-1.405 3.558c.298.955.554 1.929.78 2.913a3.06 3.06 0 0 0 2.737 2.355 38.176 38.176 0 0 0-.64-2.39 3.078 3.078 0 0 1 1.405-3.559l2.922-1.692a3.079 3.079 0 0 0 1.119-4.204l-4.4-7.62a3.052 3.052 0 0 0-2.065-1.47l3.587 6.213zm4.761 17.661c.004.062.018.12.018.182v8.809a3.072 3.072 0 0 1-3.076 3.076h-3.364a3.081 3.081 0 0 0-2.994 2.39 38.194 38.194 0 0 1-.78 2.922 3.073 3.073 0 0 0 1.395 3.569l1.452.838c-.105-.498-.127-1.015.03-1.53.298-.954.554-1.928.78-2.922a3.08 3.08 0 0 1 2.994-2.39h3.363a3.072 3.072 0 0 0 3.077-3.076v-8.809c0-1.64-1.28-2.963-2.895-3.059zm-35.73 47.876a3.074 3.074 0 0 0-3.568-1.394c-.954.287-1.929.554-2.913.78a3.06 3.06 0 0 0-2.4 2.984v3.384a3.072 3.072 0 0 1-3.076 3.076h-8.809c-.062 0-.12-.014-.18-.018a3.063 3.063 0 0 0 3.057 2.895h8.809a3.073 3.073 0 0 0 3.077-3.077v-3.383a3.06 3.06 0 0 1 2.399-2.984 44.88 44.88 0 0 0 2.912-.78c.515-.157 1.033-.134 1.53-.03l-.838-1.453zm32.718-22.37-1.407-.812a3.058 3.058 0 0 1-.342 2.14l-4.399 7.62a3.073 3.073 0 0 1-4.204 1.128l-2.923-1.693a3.072 3.072 0 0 0-3.784.575A42.155 42.155 0 0 1 92 94.144a3.072 3.072 0 0 0-.574 3.784l1.692 2.922a3.075 3.075 0 0 1-1.128 4.205l-7.62 4.4a3.055 3.055 0 0 1-2.14.341l.813 1.407a3.072 3.072 0 0 0 4.204 1.128l7.62-4.4a3.075 3.075 0 0 0 1.128-4.203l-1.693-2.923a3.072 3.072 0 0 1 .575-3.784 42.583 42.583 0 0 0 2.143-2.143 3.071 3.071 0 0 1 3.784-.575l2.922 1.692a3.073 3.073 0 0 0 4.205-1.127l4.4-7.62a3.073 3.073 0 0 0-1.129-4.204zm-58.95 21.755a39.747 39.747 0 0 1-2.933-.779 3.065 3.065 0 0 0-3.558 1.394l-1.682 2.913a3.073 3.073 0 0 1-4.204 1.128l-6.208-3.584c.17.836.672 1.602 1.466 2.062l7.619 4.4a3.072 3.072 0 0 0 4.204-1.13l1.682-2.911a3.066 3.066 0 0 1 3.558-1.395c.79.244 1.593.444 2.401.638-.115-1.32-1.038-2.437-2.345-2.736zm-19.675-10.21c-.11-.146-.195-.306-.332-.434a53.063 53.063 0 0 1-2.153-2.143 3.057 3.057 0 0 0-3.774-.574l-2.922 1.682a3.059 3.059 0 0 1-2.14.341l.812 1.408a3.073 3.073 0 0 0 4.204 1.127l2.923-1.681c1.093-.633 2.412-.478 3.382.274z" class="colorDDDCE0 svgShape"></path><path fill="#ffffff" d="M87.704 34.047a.898.898 0 0 1-.505-.155 38.274 38.274 0 0 0-21.51-6.576.912.912 0 0 1-.912-.91c0-.503.41-.912.912-.912a40.082 40.082 0 0 1 22.528 6.887c.2.137.337.343.383.582a.902.902 0 0 1-.14.683.906.906 0 0 1-.756.401zm-43.1-.62a.91.91 0 0 1-.892-1.11.913.913 0 0 1 .401-.572 39.931 39.931 0 0 1 14.214-5.58.912.912 0 0 1 .333 1.792 38.102 38.102 0 0 0-13.57 5.327.906.906 0 0 1-.486.142zM27.141 58.58a.903.903 0 0 1-.765-.413.906.906 0 0 1-.129-.685A40.267 40.267 0 0 1 35.66 38.91a.911.911 0 0 1 1.358 1.218 38.432 38.432 0 0 0-8.988 17.729.914.914 0 0 1-.89.724zm4.495 27.94a.904.904 0 0 1-.79-.453 40.306 40.306 0 0 1-5.458-20.273.912.912 0 0 1 1.823 0 38.486 38.486 0 0 0 5.21 19.355.91.91 0 0 1-.785 1.37z" class="colorFFF svgShape"></path></svg>